<svg width="420" height="420" xmlns="http://www.w3.org/2000/svg">
 <g>
  <title>Layer 1</title>
  <rect fill="none" stroke="#000" stroke-width="3" x="492.44729" y="400.91494" width="0.33329" height="0" id="svg_28"/>
  <path fill="#fcf5e3" stroke="#000" stroke-width="8" d="m177.73655,313.88171c-35.18426,-14.72591 -57.7365,-44.18386 -54.67193,-101.43864c-3.05272,-63.84017 79.85922,-177.9942 86.51784,-173.41043c2.17329,1.49607 33.51282,39.79166 53.64342,81.84205c23.71628,40.69363 28.35863,77.25424 28.35863,102.92257c-6.66667,54.69531 -37.38347,94.646 -82.27006,93.78836c-13.09854,-0.25031 -27.3086,-1.91706 -31.5779,-3.7039l0,-0.00001zm28.95295,-109.52362c-39.34766,-42.00197 -34.36229,-120.32087 -24.78264,-134.15108c9.57965,-13.83022 8.78054,-12.54906 -21.54098,34.03938c-30.32152,46.58844 85.67128,142.11368 46.32361,100.11171l0.00001,-0.00001z" id="svg_30"/>
  <path fill="#fcf5e3" stroke="#000" stroke-width="8" d="m126.33636,349.95244c9.5281,-15.03377 13.26335,-24.05095 21.51758,-30.66294c59.74077,9.08176 55.47885,9.72473 117.8189,0.0036c6.09485,4.27532 9.80053,9.1581 24.3652,31.50088c-28.1471,14.34519 -61.36653,13.76703 -78.66493,14.49116c-17.05928,-0.83102 -59.86877,0.12009 -85.17696,-14.80281l0.14021,-0.52989z" id="svg_31"/>
  <path fill="#fcf5e3" stroke="#000" stroke-width="8" d="m109.3845,396.94765c10.19491,-16.5346 7.33873,-18.38518 14.3362,-33.6629c84.25834,17.74749 83.24637,17.72386 168.96794,1.33679c6.33541,11.77722 3.72693,13.15767 13.34766,30.1677c-44.17028,13.67859 -59.31129,15.10022 -99.68927,15.82435c-34.06006,-1.49762 -55.31397,-2.54629 -96.81575,-13.46963l-0.14678,-0.19631z" id="svg_34"/>
  <path fill="#fcf5e3" stroke="#000" stroke-width="8" opacity="undefined" d="m208.66667,43.99999c-9.94475,0 -18,-7.75691 -18,-17.33333c0,-9.57643 8.05525,-17.33333 18,-17.33333c9.94475,0 18,7.75691 18,17.33333c0,9.57643 -8.05525,17.33333 -18,17.33333z" id="svg_26"/>
 </g>

</svg>